<?xml version="1.0" encoding="UTF-8" standalone="no"?>
<!DOCTYPE svg PUBLIC "-//W3C//DTD SVG 1.1//EN"
 "http://www.w3.org/Graphics/SVG/1.1/DTD/svg11.dtd">
<!-- Generated by graphviz version 2.26.3 (20100126.1600)
 -->
<!-- Title: G Pages: 1 -->
<svg width="966pt" height="3900pt"
 viewBox="0.00 0.00 966.00 3900.00" xmlns="http://www.w3.org/2000/svg" xmlns:xlink="http://www.w3.org/1999/xlink">
<g id="graph1" class="graph" transform="scale(1 1) rotate(0) translate(4 3896)">
<title>G</title>
<polygon fill="white" stroke="white" points="-4,5 -4,-3896 963,-3896 963,5 -4,5"/>
<g id="graph2" class="cluster"><title>cluster_Cacic</title>
<polyline fill="none" stroke="gray" points="660,-8 938,-8 "/>
<path fill="none" stroke="gray" d="M938,-8C944,-8 950,-14 950,-20"/>
<polyline fill="none" stroke="gray" points="950,-20 950,-3872 "/>
<path fill="none" stroke="gray" d="M950,-3872C950,-3878 944,-3884 938,-3884"/>
<polyline fill="none" stroke="gray" points="938,-3884 660,-3884 "/>
<path fill="none" stroke="gray" d="M660,-3884C654,-3884 648,-3878 648,-3872"/>
<polyline fill="none" stroke="gray" points="648,-3872 648,-20 "/>
<path fill="none" stroke="gray" d="M648,-20C648,-14 654,-8 660,-8"/>
<text text-anchor="middle" x="799" y="-3870.1" font-family="Times Roman,serif" font-size="11.00" fill="gray">Cacic</text>
</g>
<g id="graph3" class="cluster"><title>cluster_Cacic\CommonBundle</title>
<polyline fill="none" stroke="gray" points="668,-16 930,-16 "/>
<path fill="none" stroke="gray" d="M930,-16C936,-16 942,-22 942,-28"/>
<polyline fill="none" stroke="gray" points="942,-28 942,-3842 "/>
<path fill="none" stroke="gray" d="M942,-3842C942,-3848 936,-3854 930,-3854"/>
<polyline fill="none" stroke="gray" points="930,-3854 668,-3854 "/>
<path fill="none" stroke="gray" d="M668,-3854C662,-3854 656,-3848 656,-3842"/>
<polyline fill="none" stroke="gray" points="656,-3842 656,-28 "/>
<path fill="none" stroke="gray" d="M656,-28C656,-22 662,-16 668,-16"/>
<text text-anchor="middle" x="799" y="-3840.1" font-family="Times Roman,serif" font-size="11.00" fill="gray">CommonBundle</text>
</g>
<g id="graph4" class="cluster"><title>cluster_Cacic\CommonBundle\Entity</title>
<polyline fill="none" stroke="gray" points="676,-24 922,-24 "/>
<path fill="none" stroke="gray" d="M922,-24C928,-24 934,-30 934,-36"/>
<polyline fill="none" stroke="gray" points="934,-36 934,-3812 "/>
<path fill="none" stroke="gray" d="M934,-3812C934,-3818 928,-3824 922,-3824"/>
<polyline fill="none" stroke="gray" points="922,-3824 676,-3824 "/>
<path fill="none" stroke="gray" d="M676,-3824C670,-3824 664,-3818 664,-3812"/>
<polyline fill="none" stroke="gray" points="664,-3812 664,-36 "/>
<path fill="none" stroke="gray" d="M664,-36C664,-30 670,-24 676,-24"/>
<text text-anchor="middle" x="799" y="-3810.1" font-family="Times Roman,serif" font-size="11.00" fill="gray">Entity</text>
</g>
<!-- \\Cacic\\CommonBundle\\Entity\\UsbVendor -->
<g id="node4" class="node"><title>\\Cacic\\CommonBundle\\Entity\\UsbVendor</title>
<a xlink:href="UsbVendor.html" xlink:title="UsbVendor" target="_parent">
<polygon fill="none" stroke="black" points="837,-3794 761,-3794 761,-3758 837,-3758 837,-3794"/>
<text text-anchor="middle" x="799" y="-3773.1" font-family="Courier,monospace" font-size="11.00">UsbVendor</text>
</a>
</g>
<!-- \\Cacic\\CommonBundle\\Entity\\UsbDevice -->
<g id="node5" class="node"><title>\\Cacic\\CommonBundle\\Entity\\UsbDevice</title>
<a xlink:href="UsbDevice.html" xlink:title="UsbDevice" target="_parent">
<polygon fill="none" stroke="black" points="837,-3740 761,-3740 761,-3704 837,-3704 837,-3740"/>
<text text-anchor="middle" x="799" y="-3719.1" font-family="Courier,monospace" font-size="11.00">UsbDevice</text>
</a>
</g>
<!-- \\Cacic\\CommonBundle\\Entity\\SoftwareEstacao -->
<g id="node6" class="node"><title>\\Cacic\\CommonBundle\\Entity\\SoftwareEstacao</title>
<a xlink:href="SoftwareEstacao.html" xlink:title="SoftwareEstacao" target="_parent">
<polygon fill="none" stroke="black" points="858,-3686 740,-3686 740,-3650 858,-3650 858,-3686"/>
<text text-anchor="middle" x="799" y="-3665.1" font-family="Courier,monospace" font-size="11.00">SoftwareEstacao</text>
</a>
</g>
<!-- \\Cacic\\CommonBundle\\Entity\\ConfiguracaoPadrao -->
<g id="node7" class="node"><title>\\Cacic\\CommonBundle\\Entity\\ConfiguracaoPadrao</title>
<a xlink:href="ConfiguracaoPadrao.html" xlink:title="ConfiguracaoPadrao" target="_parent">
<polygon fill="none" stroke="black" points="868,-3632 730,-3632 730,-3596 868,-3596 868,-3632"/>
<text text-anchor="middle" x="799" y="-3611.1" font-family="Courier,monospace" font-size="11.00">ConfiguracaoPadrao</text>
</a>
</g>
<!-- \\Cacic\\CommonBundle\\Entity\\AquisicaoRepository -->
<g id="node8" class="node"><title>\\Cacic\\CommonBundle\\Entity\\AquisicaoRepository</title>
<a xlink:href="AquisicaoRepository.html" xlink:title="AquisicaoRepository" target="_parent">
<polygon fill="none" stroke="black" points="871,-3308 727,-3308 727,-3272 871,-3272 871,-3308"/>
<text text-anchor="middle" x="799" y="-3287.1" font-family="Courier,monospace" font-size="11.00">AquisicaoRepository</text>
</a>
</g>
<!-- \\Doctrine\\ORM\\EntityRepository -->
<g id="node76" class="node"><title>\\Doctrine\\ORM\\EntityRepository</title>
<ellipse fill="none" stroke="black" cx="300" cy="-2210" rx="167.084" ry="18.3848"/>
<text text-anchor="middle" x="300" y="-2206.4" font-family="Times Roman,serif" font-size="14.00" fill="gray">\Doctrine\ORM\EntityRepository</text>
</g>
<!-- \\Cacic\\CommonBundle\\Entity\\AquisicaoRepository&#45;&gt;\\Doctrine\\ORM\\EntityRepository -->
<g id="edge6" class="edge"><title>\\Cacic\\CommonBundle\\Entity\\AquisicaoRepository&#45;&gt;\\Doctrine\\ORM\\EntityRepository</title>
<path fill="none" stroke="black" d="M726.195,-3292.1C698.883,-3289.3 669.329,-3281.49 648,-3263 481.606,-3118.74 334.708,-2391.47 305.33,-2238.33"/>
<polygon fill="none" stroke="black" points="308.731,-2237.48 303.419,-2228.31 301.855,-2238.79 308.731,-2237.48"/>
</g>
<!-- \\Cacic\\CommonBundle\\Entity\\TipoLicenca -->
<g id="node9" class="node"><title>\\Cacic\\CommonBundle\\Entity\\TipoLicenca</title>
<a xlink:href="TipoLicenca.html" xlink:title="TipoLicenca" target="_parent">
<polygon fill="none" stroke="black" points="844,-3524 754,-3524 754,-3488 844,-3488 844,-3524"/>
<text text-anchor="middle" x="799" y="-3503.1" font-family="Courier,monospace" font-size="11.00">TipoLicenca</text>
</a>
</g>
<!-- \\Cacic\\CommonBundle\\Entity\\DescricaoColunaComputador -->
<g id="node10" class="node"><title>\\Cacic\\CommonBundle\\Entity\\DescricaoColunaComputador</title>
<a xlink:href="DescricaoColunaComputador.html" xlink:title="DescricaoColunaComputador" target="_parent">
<polygon fill="none" stroke="black" points="891,-3470 707,-3470 707,-3434 891,-3434 891,-3470"/>
<text text-anchor="middle" x="799" y="-3449.1" font-family="Courier,monospace" font-size="11.00">DescricaoColunaComputador</text>
</a>
</g>
<!-- \\Cacic\\CommonBundle\\Entity\\UnidOrganizacionalNivel2 -->
<g id="node11" class="node"><title>\\Cacic\\CommonBundle\\Entity\\UnidOrganizacionalNivel2</title>
<a xlink:href="UnidOrganizacionalNivel2.html" xlink:title="UnidOrganizacionalNivel2" target="_parent">
<polygon fill="none" stroke="black" points="888,-3416 710,-3416 710,-3380 888,-3380 888,-3416"/>
<text text-anchor="middle" x="799" y="-3395.1" font-family="Courier,monospace" font-size="11.00">UnidOrganizacionalNivel2</text>
</a>
</g>
<!-- \\Cacic\\CommonBundle\\Entity\\TipoUorg -->
<g id="node12" class="node"><title>\\Cacic\\CommonBundle\\Entity\\TipoUorg</title>
<a xlink:href="TipoUorg.html" xlink:title="TipoUorg" target="_parent">
<polygon fill="none" stroke="black" points="834,-3362 764,-3362 764,-3326 834,-3326 834,-3362"/>
<text text-anchor="middle" x="799" y="-3341.1" font-family="Courier,monospace" font-size="11.00">TipoUorg</text>
</a>
</g>
<!-- \\Cacic\\CommonBundle\\Entity\\UorgRepository -->
<g id="node13" class="node"><title>\\Cacic\\CommonBundle\\Entity\\UorgRepository</title>
<a xlink:href="UorgRepository.html" xlink:title="UorgRepository" target="_parent">
<polygon fill="none" stroke="black" points="854,-3200 744,-3200 744,-3164 854,-3164 854,-3200"/>
<text text-anchor="middle" x="799" y="-3179.1" font-family="Courier,monospace" font-size="11.00">UorgRepository</text>
</a>
</g>
<!-- \\Cacic\\CommonBundle\\Entity\\UorgRepository&#45;&gt;\\Doctrine\\ORM\\EntityRepository -->
<g id="edge8" class="edge"><title>\\Cacic\\CommonBundle\\Entity\\UorgRepository&#45;&gt;\\Doctrine\\ORM\\EntityRepository</title>
<path fill="none" stroke="black" d="M743.461,-3184.93C712.173,-3183.7 674.23,-3176.98 648,-3155 347.536,-2903.23 306.439,-2367.58 300.866,-2238.44"/>
<polygon fill="none" stroke="black" points="304.354,-2238.06 300.464,-2228.2 297.359,-2238.33 304.354,-2238.06"/>
</g>
<!-- \\Cacic\\CommonBundle\\Entity\\InsucessoInstalacao -->
<g id="node14" class="node"><title>\\Cacic\\CommonBundle\\Entity\\InsucessoInstalacao</title>
<a xlink:href="InsucessoInstalacao.html" xlink:title="InsucessoInstalacao" target="_parent">
<polygon fill="none" stroke="black" points="871,-3254 727,-3254 727,-3218 871,-3218 871,-3254"/>
<text text-anchor="middle" x="799" y="-3233.1" font-family="Courier,monospace" font-size="11.00">InsucessoInstalacao</text>
</a>
</g>
<!-- \\Cacic\\CommonBundle\\Entity\\Usuario -->
<g id="node15" class="node"><title>\\Cacic\\CommonBundle\\Entity\\Usuario</title>
<a xlink:href="Usuario.html" xlink:title="Usuario" target="_parent">
<polygon fill="none" stroke="black" points="831,-230 767,-230 767,-194 831,-194 831,-230"/>
<text text-anchor="middle" x="799" y="-209.1" font-family="Courier,monospace" font-size="11.00">Usuario</text>
</a>
</g>
<!-- \\Symfony\\Component\\Security\\Core\\User\\UserInterface -->
<g id="node100" class="node"><title>\\Symfony\\Component\\Security\\Core\\User\\UserInterface</title>
<ellipse fill="none" stroke="black" cx="300" cy="-239" rx="299.813" ry="18.3848"/>
<text text-anchor="middle" x="300" y="-235.4" font-family="Times Roman,serif" font-size="14.00" fill="gray">\\Symfony\\Component\\Security\\Core\\User\\UserInterface</text>
</g>
<!-- \\Cacic\\CommonBundle\\Entity\\Usuario&#45;&gt;\\Symfony\\Component\\Security\\Core\\User\\UserInterface -->
<g id="edge52" class="edge"><title>\\Cacic\\CommonBundle\\Entity\\Usuario&#45;&gt;\\Symfony\\Component\\Security\\Core\\User\\UserInterface</title>
<path fill="none" stroke="black" stroke-dasharray="1,5" d="M766.644,-213.751C718.662,-216.347 624.455,-221.444 533.175,-226.383"/>
<polygon fill="none" stroke="black" points="532.72,-222.903 522.924,-226.938 533.099,-229.892 532.72,-222.903"/>
</g>
<!-- \\Serializable -->
<g id="node102" class="node"><title>\\Serializable</title>
<ellipse fill="none" stroke="black" cx="300" cy="-185" rx="74.2462" ry="18.3848"/>
<text text-anchor="middle" x="300" y="-181.4" font-family="Times Roman,serif" font-size="14.00" fill="gray">\\Serializable</text>
</g>
<!-- \\Cacic\\CommonBundle\\Entity\\Usuario&#45;&gt;\\Serializable -->
<g id="edge54" class="edge"><title>\\Cacic\\CommonBundle\\Entity\\Usuario&#45;&gt;\\Serializable</title>
<path fill="none" stroke="black" stroke-dasharray="1,5" d="M766.644,-210.249C689.888,-206.096 494.842,-195.543 382.713,-189.475"/>
<polygon fill="none" stroke="black" points="382.635,-185.966 372.46,-188.921 382.257,-192.956 382.635,-185.966"/>
</g>
<!-- \\Cacic\\CommonBundle\\Entity\\AquisicaoItemRepository -->
<g id="node16" class="node"><title>\\Cacic\\CommonBundle\\Entity\\AquisicaoItemRepository</title>
<a xlink:href="AquisicaoItemRepository.html" xlink:title="AquisicaoItemRepository" target="_parent">
<polygon fill="none" stroke="black" points="885,-3146 713,-3146 713,-3110 885,-3110 885,-3146"/>
<text text-anchor="middle" x="799" y="-3125.1" font-family="Courier,monospace" font-size="11.00">AquisicaoItemRepository</text>
</a>
</g>
<!-- \\Cacic\\CommonBundle\\Entity\\AquisicaoItemRepository&#45;&gt;\\Doctrine\\ORM\\EntityRepository -->
<g id="edge10" class="edge"><title>\\Cacic\\CommonBundle\\Entity\\AquisicaoItemRepository&#45;&gt;\\Doctrine\\ORM\\EntityRepository</title>
<path fill="none" stroke="black" d="M712.658,-3127.6C689.611,-3123.71 666.109,-3115.88 648,-3101 361.505,-2865.66 310.04,-2363.12 301.562,-2238.44"/>
<polygon fill="none" stroke="black" points="305.038,-2237.96 300.907,-2228.2 298.053,-2238.41 305.038,-2237.96"/>
</g>
<!-- \\Cacic\\CommonBundle\\Entity\\Teste -->
<g id="node17" class="node"><title>\\Cacic\\CommonBundle\\Entity\\Teste</title>
<a xlink:href="Teste.html" xlink:title="Teste" target="_parent">
<polygon fill="none" stroke="black" points="826,-3092 772,-3092 772,-3056 826,-3056 826,-3092"/>
<text text-anchor="middle" x="799" y="-3071.1" font-family="Courier,monospace" font-size="11.00">Teste</text>
</a>
</g>
<!-- \\Cacic\\CommonBundle\\Entity\\InsucessoInstalacaoRepository -->
<g id="node18" class="node"><title>\\Cacic\\CommonBundle\\Entity\\InsucessoInstalacaoRepository</title>
<a xlink:href="InsucessoInstalacaoRepository.html" xlink:title="InsucessoInstalacaoRepository" target="_parent">
<polygon fill="none" stroke="black" points="905,-3038 693,-3038 693,-3002 905,-3002 905,-3038"/>
<text text-anchor="middle" x="799" y="-3017.1" font-family="Courier,monospace" font-size="11.00">InsucessoInstalacaoRepository</text>
</a>
</g>
<!-- \\Cacic\\CommonBundle\\Entity\\InsucessoInstalacaoRepository&#45;&gt;\\Doctrine\\ORM\\EntityRepository -->
<g id="edge12" class="edge"><title>\\Cacic\\CommonBundle\\Entity\\InsucessoInstalacaoRepository&#45;&gt;\\Doctrine\\ORM\\EntityRepository</title>
<path fill="none" stroke="black" d="M692.67,-3014.53C676.553,-3010.02 660.995,-3003.19 648,-2993 389.109,-2790.09 317.823,-2353.55 303.203,-2238.35"/>
<polygon fill="none" stroke="black" points="306.652,-2237.72 301.96,-2228.22 299.704,-2238.58 306.652,-2237.72"/>
</g>
<!-- \\Cacic\\CommonBundle\\Entity\\LogRepository -->
<g id="node19" class="node"><title>\\Cacic\\CommonBundle\\Entity\\LogRepository</title>
<a xlink:href="LogRepository.html" xlink:title="LogRepository" target="_parent">
<polygon fill="none" stroke="black" points="851,-2984 747,-2984 747,-2948 851,-2948 851,-2984"/>
<text text-anchor="middle" x="799" y="-2963.1" font-family="Courier,monospace" font-size="11.00">LogRepository</text>
</a>
</g>
<!-- \\Cacic\\CommonBundle\\Entity\\LogRepository&#45;&gt;\\Doctrine\\ORM\\EntityRepository -->
<g id="edge14" class="edge"><title>\\Cacic\\CommonBundle\\Entity\\LogRepository&#45;&gt;\\Doctrine\\ORM\\EntityRepository</title>
<path fill="none" stroke="black" d="M746.718,-2968.13C715.232,-2966.82 675.96,-2960.31 648,-2939 402.682,-2752.05 322.028,-2348.29 304.169,-2238.21"/>
<polygon fill="none" stroke="black" points="307.607,-2237.54 302.59,-2228.21 300.693,-2238.63 307.607,-2237.54"/>
</g>
<!-- \\Cacic\\CommonBundle\\Entity\\Rede -->
<g id="node20" class="node"><title>\\Cacic\\CommonBundle\\Entity\\Rede</title>
<a xlink:href="Rede.html" xlink:title="Rede" target="_parent">
<polygon fill="none" stroke="black" points="826,-2930 772,-2930 772,-2894 826,-2894 826,-2930"/>
<text text-anchor="middle" x="799" y="-2909.1" font-family="Courier,monospace" font-size="11.00">Rede</text>
</a>
</g>
<!-- \\Cacic\\CommonBundle\\Entity\\AcaoExcecao -->
<g id="node21" class="node"><title>\\Cacic\\CommonBundle\\Entity\\AcaoExcecao</title>
<a xlink:href="AcaoExcecao.html" xlink:title="AcaoExcecao" target="_parent">
<polygon fill="none" stroke="black" points="844,-2876 754,-2876 754,-2840 844,-2840 844,-2876"/>
<text text-anchor="middle" x="799" y="-2855.1" font-family="Courier,monospace" font-size="11.00">AcaoExcecao</text>
</a>
</g>
<!-- \\Cacic\\CommonBundle\\Entity\\PatrimonioConfigInterface -->
<g id="node22" class="node"><title>\\Cacic\\CommonBundle\\Entity\\PatrimonioConfigInterface</title>
<a xlink:href="PatrimonioConfigInterface.html" xlink:title="PatrimonioConfigInterface" target="_parent">
<polygon fill="none" stroke="black" points="891,-2822 707,-2822 707,-2786 891,-2786 891,-2822"/>
<text text-anchor="middle" x="799" y="-2801.1" font-family="Courier,monospace" font-size="11.00">PatrimonioConfigInterface</text>
</a>
</g>
<!-- \\Cacic\\CommonBundle\\Entity\\RedeRepository -->
<g id="node23" class="node"><title>\\Cacic\\CommonBundle\\Entity\\RedeRepository</title>
<a xlink:href="RedeRepository.html" xlink:title="RedeRepository" target="_parent">
<polygon fill="none" stroke="black" points="854,-2768 744,-2768 744,-2732 854,-2732 854,-2768"/>
<text text-anchor="middle" x="799" y="-2747.1" font-family="Courier,monospace" font-size="11.00">RedeRepository</text>
</a>
</g>
<!-- \\Cacic\\CommonBundle\\Entity\\RedeRepository&#45;&gt;\\Doctrine\\ORM\\EntityRepository -->
<g id="edge16" class="edge"><title>\\Cacic\\CommonBundle\\Entity\\RedeRepository&#45;&gt;\\Doctrine\\ORM\\EntityRepository</title>
<path fill="none" stroke="black" d="M743.142,-2750.29C712.87,-2748.04 676.032,-2741.2 648,-2723 455.459,-2598 342.175,-2325.15 309.744,-2237.62"/>
<polygon fill="none" stroke="black" points="312.99,-2236.3 306.272,-2228.11 306.415,-2238.71 312.99,-2236.3"/>
</g>
<!-- \\Cacic\\CommonBundle\\Entity\\Computador -->
<g id="node24" class="node"><title>\\Cacic\\CommonBundle\\Entity\\Computador</title>
<a xlink:href="Computador.html" xlink:title="Computador" target="_parent">
<polygon fill="none" stroke="black" points="841,-2714 757,-2714 757,-2678 841,-2678 841,-2714"/>
<text text-anchor="middle" x="799" y="-2693.1" font-family="Courier,monospace" font-size="11.00">Computador</text>
</a>
</g>
<!-- \\Cacic\\CommonBundle\\Entity\\ServidorAutenticacaoRepository -->
<g id="node25" class="node"><title>\\Cacic\\CommonBundle\\Entity\\ServidorAutenticacaoRepository</title>
<a xlink:href="ServidorAutenticacaoRepository.html" xlink:title="ServidorAutenticacaoRepository" target="_parent">
<polygon fill="none" stroke="black" points="908,-2660 690,-2660 690,-2624 908,-2624 908,-2660"/>
<text text-anchor="middle" x="799" y="-2639.1" font-family="Courier,monospace" font-size="11.00">ServidorAutenticacaoRepository</text>
</a>
</g>
<!-- \\Cacic\\CommonBundle\\Entity\\ServidorAutenticacaoRepository&#45;&gt;\\Doctrine\\ORM\\EntityRepository -->
<g id="edge18" class="edge"><title>\\Cacic\\CommonBundle\\Entity\\ServidorAutenticacaoRepository&#45;&gt;\\Doctrine\\ORM\\EntityRepository</title>
<path fill="none" stroke="black" d="M689.437,-2631.64C674.942,-2627.65 660.719,-2622.26 648,-2615 480.482,-2519.32 355.357,-2311.58 314.397,-2237.18"/>
<polygon fill="none" stroke="black" points="317.464,-2235.5 309.607,-2228.39 311.317,-2238.84 317.464,-2235.5"/>
</g>
<!-- \\Cacic\\CommonBundle\\Entity\\UnidOrganizacionalNivel1a -->
<g id="node26" class="node"><title>\\Cacic\\CommonBundle\\Entity\\UnidOrganizacionalNivel1a</title>
<a xlink:href="UnidOrganizacionalNivel1a.html" xlink:title="UnidOrganizacionalNivel1a" target="_parent">
<polygon fill="none" stroke="black" points="891,-2606 707,-2606 707,-2570 891,-2570 891,-2606"/>
<text text-anchor="middle" x="799" y="-2585.1" font-family="Courier,monospace" font-size="11.00">UnidOrganizacionalNivel1a</text>
</a>
</g>
<!-- \\Cacic\\CommonBundle\\Entity\\TipoSoftwareRepository -->
<g id="node27" class="node"><title>\\Cacic\\CommonBundle\\Entity\\TipoSoftwareRepository</title>
<a xlink:href="TipoSoftwareRepository.html" xlink:title="TipoSoftwareRepository" target="_parent">
<polygon fill="none" stroke="black" points="881,-2552 717,-2552 717,-2516 881,-2516 881,-2552"/>
<text text-anchor="middle" x="799" y="-2531.1" font-family="Courier,monospace" font-size="11.00">TipoSoftwareRepository</text>
</a>
</g>
<!-- \\Cacic\\CommonBundle\\Entity\\TipoSoftwareRepository&#45;&gt;\\Doctrine\\ORM\\EntityRepository -->
<g id="edge20" class="edge"><title>\\Cacic\\CommonBundle\\Entity\\TipoSoftwareRepository&#45;&gt;\\Doctrine\\ORM\\EntityRepository</title>
<path fill="none" stroke="black" d="M716.242,-2527.25C693.372,-2523.27 669.066,-2516.96 648,-2507 503.641,-2438.74 371.395,-2294.52 321.268,-2235.75"/>
<polygon fill="none" stroke="black" points="323.878,-2233.41 314.748,-2228.04 318.533,-2237.93 323.878,-2233.41"/>
</g>
<!-- \\Cacic\\CommonBundle\\Entity\\SoftwareRepository -->
<g id="node28" class="node"><title>\\Cacic\\CommonBundle\\Entity\\SoftwareRepository</title>
<a xlink:href="SoftwareRepository.html" xlink:title="SoftwareRepository" target="_parent">
<polygon fill="none" stroke="black" points="868,-2498 730,-2498 730,-2462 868,-2462 868,-2498"/>
<text text-anchor="middle" x="799" y="-2477.1" font-family="Courier,monospace" font-size="11.00">SoftwareRepository</text>
</a>
</g>
<!-- \\Cacic\\CommonBundle\\Entity\\SoftwareRepository&#45;&gt;\\Doctrine\\ORM\\EntityRepository -->
<g id="edge22" class="edge"><title>\\Cacic\\CommonBundle\\Entity\\SoftwareRepository&#45;&gt;\\Doctrine\\ORM\\EntityRepository</title>
<path fill="none" stroke="black" d="M729.949,-2474.03C703.586,-2470.12 673.705,-2463.66 648,-2453 515.01,-2397.83 382.303,-2285.32 326.919,-2235.14"/>
<polygon fill="none" stroke="black" points="329.064,-2232.35 319.318,-2228.2 324.345,-2237.52 329.064,-2232.35"/>
</g>
<!-- \\Cacic\\CommonBundle\\Entity\\Log -->
<g id="node29" class="node"><title>\\Cacic\\CommonBundle\\Entity\\Log</title>
<a xlink:href="Log.html" xlink:title="Log" target="_parent">
<polygon fill="none" stroke="black" points="826,-2444 772,-2444 772,-2408 826,-2408 826,-2444"/>
<text text-anchor="middle" x="799" y="-2423.1" font-family="Courier,monospace" font-size="11.00">Log</text>
</a>
</g>
<!-- \\Cacic\\CommonBundle\\Entity\\ComputadorColeta -->
<g id="node30" class="node"><title>\\Cacic\\CommonBundle\\Entity\\ComputadorColeta</title>
<a xlink:href="ComputadorColeta.html" xlink:title="ComputadorColeta" target="_parent">
<polygon fill="none" stroke="black" points="861,-2390 737,-2390 737,-2354 861,-2354 861,-2390"/>
<text text-anchor="middle" x="799" y="-2369.1" font-family="Courier,monospace" font-size="11.00">ComputadorColeta</text>
</a>
</g>
<!-- \\Cacic\\CommonBundle\\Entity\\UsuarioRepository -->
<g id="node31" class="node"><title>\\Cacic\\CommonBundle\\Entity\\UsuarioRepository</title>
<a xlink:href="UsuarioRepository.html" xlink:title="UsuarioRepository" target="_parent">
<polygon fill="none" stroke="black" points="864,-2336 734,-2336 734,-2300 864,-2300 864,-2336"/>
<text text-anchor="middle" x="799" y="-2315.1" font-family="Courier,monospace" font-size="11.00">UsuarioRepository</text>
</a>
</g>
<!-- \\Cacic\\CommonBundle\\Entity\\UsuarioRepository&#45;&gt;\\Doctrine\\ORM\\EntityRepository -->
<g id="edge24" class="edge"><title>\\Cacic\\CommonBundle\\Entity\\UsuarioRepository&#45;&gt;\\Doctrine\\ORM\\EntityRepository</title>
<path fill="none" stroke="black" d="M733.452,-2307.04C706.87,-2302.4 675.911,-2296.74 648,-2291 554.182,-2271.71 446.938,-2246.22 376.594,-2229.03"/>
<polygon fill="none" stroke="black" points="377.034,-2225.53 366.489,-2226.56 375.369,-2232.33 377.034,-2225.53"/>
</g>
<!-- \\Cacic\\CommonBundle\\Entity\\RedeVersaoModulo -->
<g id="node32" class="node"><title>\\Cacic\\CommonBundle\\Entity\\RedeVersaoModulo</title>
<a xlink:href="RedeVersaoModulo.html" xlink:title="RedeVersaoModulo" target="_parent">
<polygon fill="none" stroke="black" points="861,-2282 737,-2282 737,-2246 861,-2246 861,-2282"/>
<text text-anchor="middle" x="799" y="-2261.1" font-family="Courier,monospace" font-size="11.00">RedeVersaoModulo</text>
</a>
</g>
<!-- \\Cacic\\CommonBundle\\Entity\\UsbDeviceRepository -->
<g id="node33" class="node"><title>\\Cacic\\CommonBundle\\Entity\\UsbDeviceRepository</title>
<a xlink:href="UsbDeviceRepository.html" xlink:title="UsbDeviceRepository" target="_parent">
<polygon fill="none" stroke="black" points="871,-2228 727,-2228 727,-2192 871,-2192 871,-2228"/>
<text text-anchor="middle" x="799" y="-2207.1" font-family="Courier,monospace" font-size="11.00">UsbDeviceRepository</text>
</a>
</g>
<!-- \\Cacic\\CommonBundle\\Entity\\UsbDeviceRepository&#45;&gt;\\Doctrine\\ORM\\EntityRepository -->
<g id="edge26" class="edge"><title>\\Cacic\\CommonBundle\\Entity\\UsbDeviceRepository&#45;&gt;\\Doctrine\\ORM\\EntityRepository</title>
<path fill="none" stroke="black" d="M726.441,-2210C661.438,-2210 563.423,-2210 477.745,-2210"/>
<polygon fill="none" stroke="black" points="477.629,-2206.5 467.629,-2210 477.629,-2213.5 477.629,-2206.5"/>
</g>
<!-- \\Cacic\\CommonBundle\\Entity\\AcaoRede -->
<g id="node34" class="node"><title>\\Cacic\\CommonBundle\\Entity\\AcaoRede</title>
<a xlink:href="AcaoRede.html" xlink:title="AcaoRede" target="_parent">
<polygon fill="none" stroke="black" points="834,-2174 764,-2174 764,-2138 834,-2138 834,-2174"/>
<text text-anchor="middle" x="799" y="-2153.1" font-family="Courier,monospace" font-size="11.00">AcaoRede</text>
</a>
</g>
<!-- \\Cacic\\CommonBundle\\Entity\\UsbLog -->
<g id="node35" class="node"><title>\\Cacic\\CommonBundle\\Entity\\UsbLog</title>
<a xlink:href="UsbLog.html" xlink:title="UsbLog" target="_parent">
<polygon fill="none" stroke="black" points="827,-2120 771,-2120 771,-2084 827,-2084 827,-2120"/>
<text text-anchor="middle" x="799" y="-2099.1" font-family="Courier,monospace" font-size="11.00">UsbLog</text>
</a>
</g>
<!-- \\Cacic\\CommonBundle\\Entity\\TipoSoftware -->
<g id="node36" class="node"><title>\\Cacic\\CommonBundle\\Entity\\TipoSoftware</title>
<a xlink:href="TipoSoftware.html" xlink:title="TipoSoftware" target="_parent">
<polygon fill="none" stroke="black" points="848,-2066 750,-2066 750,-2030 848,-2030 848,-2066"/>
<text text-anchor="middle" x="799" y="-2045.1" font-family="Courier,monospace" font-size="11.00">TipoSoftware</text>
</a>
</g>
<!-- \\Cacic\\CommonBundle\\Entity\\PatrimonioConfigInterfaceRepository -->
<g id="node37" class="node"><title>\\Cacic\\CommonBundle\\Entity\\PatrimonioConfigInterfaceRepository</title>
<a xlink:href="PatrimonioConfigInterfaceRepository.html" xlink:title="PatrimonioConfigInterfaceRepository" target="_parent">
<polygon fill="none" stroke="black" points="925,-2012 673,-2012 673,-1976 925,-1976 925,-2012"/>
<text text-anchor="middle" x="799" y="-1991.1" font-family="Courier,monospace" font-size="11.00">PatrimonioConfigInterfaceRepository</text>
</a>
</g>
<!-- \\Cacic\\CommonBundle\\Entity\\PatrimonioConfigInterfaceRepository&#45;&gt;\\Doctrine\\ORM\\EntityRepository -->
<g id="edge28" class="edge"><title>\\Cacic\\CommonBundle\\Entity\\PatrimonioConfigInterfaceRepository&#45;&gt;\\Doctrine\\ORM\\EntityRepository</title>
<path fill="none" stroke="black" d="M678.171,-2012.01C667.856,-2014.62 657.675,-2017.61 648,-2021 525.87,-2063.82 395.187,-2145.86 334.565,-2186.29"/>
<polygon fill="none" stroke="black" points="332.492,-2183.46 326.138,-2191.94 336.392,-2189.28 332.492,-2183.46"/>
</g>
<!-- \\Cacic\\CommonBundle\\Entity\\ServidorAutenticacao -->
<g id="node38" class="node"><title>\\Cacic\\CommonBundle\\Entity\\ServidorAutenticacao</title>
<a xlink:href="ServidorAutenticacao.html" xlink:title="ServidorAutenticacao" target="_parent">
<polygon fill="none" stroke="black" points="875,-1958 723,-1958 723,-1922 875,-1922 875,-1958"/>
<text text-anchor="middle" x="799" y="-1937.1" font-family="Courier,monospace" font-size="11.00">ServidorAutenticacao</text>
</a>
</g>
<!-- \\Cacic\\CommonBundle\\Entity\\Aplicativo -->
<g id="node39" class="node"><title>\\Cacic\\CommonBundle\\Entity\\Aplicativo</title>
<a xlink:href="Aplicativo.html" xlink:title="Aplicativo" target="_parent">
<polygon fill="none" stroke="black" points="841,-1904 757,-1904 757,-1868 841,-1868 841,-1904"/>
<text text-anchor="middle" x="799" y="-1883.1" font-family="Courier,monospace" font-size="11.00">Aplicativo</text>
</a>
</g>
<!-- \\Cacic\\CommonBundle\\Entity\\SrcacicConexao -->
<g id="node40" class="node"><title>\\Cacic\\CommonBundle\\Entity\\SrcacicConexao</title>
<a xlink:href="SrcacicConexao.html" xlink:title="SrcacicConexao" target="_parent">
<polygon fill="none" stroke="black" points="854,-1850 744,-1850 744,-1814 854,-1814 854,-1850"/>
<text text-anchor="middle" x="799" y="-1829.1" font-family="Courier,monospace" font-size="11.00">SrcacicConexao</text>
</a>
</g>
<!-- \\Cacic\\CommonBundle\\Entity\\SoftwareEstacaoRepository -->
<g id="node41" class="node"><title>\\Cacic\\CommonBundle\\Entity\\SoftwareEstacaoRepository</title>
<a xlink:href="SoftwareEstacaoRepository.html" xlink:title="SoftwareEstacaoRepository" target="_parent">
<polygon fill="none" stroke="black" points="891,-1796 707,-1796 707,-1760 891,-1760 891,-1796"/>
<text text-anchor="middle" x="799" y="-1775.1" font-family="Courier,monospace" font-size="11.00">SoftwareEstacaoRepository</text>
</a>
</g>
<!-- \\Cacic\\CommonBundle\\Entity\\SoftwareEstacaoRepository&#45;&gt;\\Doctrine\\ORM\\EntityRepository -->
<g id="edge30" class="edge"><title>\\Cacic\\CommonBundle\\Entity\\SoftwareEstacaoRepository&#45;&gt;\\Doctrine\\ORM\\EntityRepository</title>
<path fill="none" stroke="black" d="M706.486,-1784.3C686.292,-1788.42 665.691,-1794.9 648,-1805 480.482,-1900.68 355.357,-2108.42 314.397,-2182.82"/>
<polygon fill="none" stroke="black" points="311.317,-2181.16 309.607,-2191.61 317.464,-2184.5 311.317,-2181.16"/>
</g>
<!-- \\Cacic\\CommonBundle\\Entity\\So -->
<g id="node42" class="node"><title>\\Cacic\\CommonBundle\\Entity\\So</title>
<a xlink:href="So.html" xlink:title="So" target="_parent">
<polygon fill="none" stroke="black" points="826,-1742 772,-1742 772,-1706 826,-1706 826,-1742"/>
<text text-anchor="middle" x="799" y="-1721.1" font-family="Courier,monospace" font-size="11.00">So</text>
</a>
</g>
<!-- \\Cacic\\CommonBundle\\Entity\\TiposSoftwareRepository -->
<g id="node43" class="node"><title>\\Cacic\\CommonBundle\\Entity\\TiposSoftwareRepository</title>
<a xlink:href="UsbDevicesRepository.html" xlink:title="TiposSoftwareRepository" target="_parent">
<polygon fill="none" stroke="black" points="885,-1688 713,-1688 713,-1652 885,-1652 885,-1688"/>
<text text-anchor="middle" x="799" y="-1667.1" font-family="Courier,monospace" font-size="11.00">TiposSoftwareRepository</text>
</a>
</g>
<!-- \\Cacic\\CommonBundle\\Entity\\TiposSoftwareRepository&#45;&gt;\\Doctrine\\ORM\\EntityRepository -->
<g id="edge32" class="edge"><title>\\Cacic\\CommonBundle\\Entity\\TiposSoftwareRepository&#45;&gt;\\Doctrine\\ORM\\EntityRepository</title>
<path fill="none" stroke="black" d="M712.693,-1673.48C690.282,-1677.47 667.098,-1684.6 648,-1697 455.459,-1822 342.175,-2094.85 309.744,-2182.38"/>
<polygon fill="none" stroke="black" points="306.415,-2181.29 306.272,-2191.89 312.99,-2183.7 306.415,-2181.29"/>
</g>
<!-- \\Cacic\\CommonBundle\\Entity\\GrupoUsuario -->
<g id="node44" class="node"><title>\\Cacic\\CommonBundle\\Entity\\GrupoUsuario</title>
<a xlink:href="GrupoUsuario.html" xlink:title="GrupoUsuario" target="_parent">
<polygon fill="none" stroke="black" points="848,-1634 750,-1634 750,-1598 848,-1598 848,-1634"/>
<text text-anchor="middle" x="799" y="-1613.1" font-family="Courier,monospace" font-size="11.00">GrupoUsuario</text>
</a>
</g>
<!-- \\Cacic\\CommonBundle\\Entity\\Classe -->
<g id="node45" class="node"><title>\\Cacic\\CommonBundle\\Entity\\Classe</title>
<a xlink:href="Classe.html" xlink:title="Classe" target="_parent">
<polygon fill="none" stroke="black" points="827,-1580 771,-1580 771,-1544 827,-1544 827,-1580"/>
<text text-anchor="middle" x="799" y="-1559.1" font-family="Courier,monospace" font-size="11.00">Classe</text>
</a>
</g>
<!-- \\Cacic\\CommonBundle\\Entity\\RedeGrupoFtp -->
<g id="node46" class="node"><title>\\Cacic\\CommonBundle\\Entity\\RedeGrupoFtp</title>
<a xlink:href="RedeGrupoFtp.html" xlink:title="RedeGrupoFtp" target="_parent">
<polygon fill="none" stroke="black" points="848,-1526 750,-1526 750,-1490 848,-1490 848,-1526"/>
<text text-anchor="middle" x="799" y="-1505.1" font-family="Courier,monospace" font-size="11.00">RedeGrupoFtp</text>
</a>
</g>
<!-- \\Cacic\\CommonBundle\\Entity\\SrcacicChat -->
<g id="node47" class="node"><title>\\Cacic\\CommonBundle\\Entity\\SrcacicChat</title>
<a xlink:href="SrcacicChat.html" xlink:title="SrcacicChat" target="_parent">
<polygon fill="none" stroke="black" points="844,-1472 754,-1472 754,-1436 844,-1436 844,-1472"/>
<text text-anchor="middle" x="799" y="-1451.1" font-family="Courier,monospace" font-size="11.00">SrcacicChat</text>
</a>
</g>
<!-- \\Cacic\\CommonBundle\\Entity\\SoRepository -->
<g id="node48" class="node"><title>\\Cacic\\CommonBundle\\Entity\\SoRepository</title>
<a xlink:href="SoRepository.html" xlink:title="SoRepository" target="_parent">
<polygon fill="none" stroke="black" points="848,-1418 750,-1418 750,-1382 848,-1382 848,-1418"/>
<text text-anchor="middle" x="799" y="-1397.1" font-family="Courier,monospace" font-size="11.00">SoRepository</text>
</a>
</g>
<!-- \\Cacic\\CommonBundle\\Entity\\SoRepository&#45;&gt;\\Doctrine\\ORM\\EntityRepository -->
<g id="edge34" class="edge"><title>\\Cacic\\CommonBundle\\Entity\\SoRepository&#45;&gt;\\Doctrine\\ORM\\EntityRepository</title>
<path fill="none" stroke="black" d="M749.712,-1397.5C717.641,-1398.39 676.611,-1404.58 648,-1427 389.109,-1629.91 317.823,-2066.45 303.203,-2181.65"/>
<polygon fill="none" stroke="black" points="299.704,-2181.42 301.96,-2191.78 306.652,-2182.28 299.704,-2181.42"/>
</g>
<!-- \\Cacic\\CommonBundle\\Entity\\SrcacicAction -->
<g id="node49" class="node"><title>\\Cacic\\CommonBundle\\Entity\\SrcacicAction</title>
<a xlink:href="SrcacicAction.html" xlink:title="SrcacicAction" target="_parent">
<polygon fill="none" stroke="black" points="851,-1364 747,-1364 747,-1328 851,-1328 851,-1364"/>
<text text-anchor="middle" x="799" y="-1343.1" font-family="Courier,monospace" font-size="11.00">SrcacicAction</text>
</a>
</g>
<!-- \\Cacic\\CommonBundle\\Entity\\Acao -->
<g id="node50" class="node"><title>\\Cacic\\CommonBundle\\Entity\\Acao</title>
<a xlink:href="Acao.html" xlink:title="Acao" target="_parent">
<polygon fill="none" stroke="black" points="826,-1310 772,-1310 772,-1274 826,-1274 826,-1310"/>
<text text-anchor="middle" x="799" y="-1289.1" font-family="Courier,monospace" font-size="11.00">Acao</text>
</a>
</g>
<!-- \\Cacic\\CommonBundle\\Entity\\TipoUorgRepository -->
<g id="node51" class="node"><title>\\Cacic\\CommonBundle\\Entity\\TipoUorgRepository</title>
<a xlink:href="TipoUorgRepository.html" xlink:title="TipoUorgRepository" target="_parent">
<polygon fill="none" stroke="black" points="868,-1256 730,-1256 730,-1220 868,-1220 868,-1256"/>
<text text-anchor="middle" x="799" y="-1235.1" font-family="Courier,monospace" font-size="11.00">TipoUorgRepository</text>
</a>
</g>
<!-- \\Cacic\\CommonBundle\\Entity\\TipoUorgRepository&#45;&gt;\\Doctrine\\ORM\\EntityRepository -->
<g id="edge36" class="edge"><title>\\Cacic\\CommonBundle\\Entity\\TipoUorgRepository&#45;&gt;\\Doctrine\\ORM\\EntityRepository</title>
<path fill="none" stroke="black" d="M729.972,-1235.94C701.773,-1238.49 670.556,-1246.1 648,-1265 347.536,-1516.77 306.439,-2052.42 300.866,-2181.56"/>
<polygon fill="none" stroke="black" points="297.359,-2181.67 300.464,-2191.8 304.354,-2181.94 297.359,-2181.67"/>
</g>
<!-- \\Cacic\\CommonBundle\\Entity\\ConfiguracaoLocalRepository -->
<g id="node52" class="node"><title>\\Cacic\\CommonBundle\\Entity\\ConfiguracaoLocalRepository</title>
<a xlink:href="ConfiguracaoLocalRepository.html" xlink:title="ConfiguracaoLocalRepository" target="_parent">
<polygon fill="none" stroke="black" points="898,-1202 700,-1202 700,-1166 898,-1166 898,-1202"/>
<text text-anchor="middle" x="799" y="-1181.1" font-family="Courier,monospace" font-size="11.00">ConfiguracaoLocalRepository</text>
</a>
</g>
<!-- \\Cacic\\CommonBundle\\Entity\\ConfiguracaoLocalRepository&#45;&gt;\\Doctrine\\ORM\\EntityRepository -->
<g id="edge38" class="edge"><title>\\Cacic\\CommonBundle\\Entity\\ConfiguracaoLocalRepository&#45;&gt;\\Doctrine\\ORM\\EntityRepository</title>
<path fill="none" stroke="black" d="M699.331,-1186.6C680.66,-1191.08 662.486,-1198.64 648,-1211 488.682,-1346.91 337.06,-2033.4 305.844,-2181.72"/>
<polygon fill="none" stroke="black" points="302.352,-2181.32 303.729,-2191.83 309.203,-2182.76 302.352,-2181.32"/>
</g>
<!-- \\Cacic\\CommonBundle\\Entity\\Aquisicao -->
<g id="node53" class="node"><title>\\Cacic\\CommonBundle\\Entity\\Aquisicao</title>
<a xlink:href="Aquisicao.html" xlink:title="Aquisicao" target="_parent">
<polygon fill="none" stroke="black" points="837,-1148 761,-1148 761,-1112 837,-1112 837,-1148"/>
<text text-anchor="middle" x="799" y="-1127.1" font-family="Courier,monospace" font-size="11.00">Aquisicao</text>
</a>
</g>
<!-- \\Cacic\\CommonBundle\\Entity\\ConfiguracaoPadraoRepository -->
<g id="node54" class="node"><title>\\Cacic\\CommonBundle\\Entity\\ConfiguracaoPadraoRepository</title>
<a xlink:href="ConfiguracaoPadraoRepository.html" xlink:title="ConfiguracaoPadraoRepository" target="_parent">
<polygon fill="none" stroke="black" points="902,-1094 696,-1094 696,-1058 902,-1058 902,-1094"/>
<text text-anchor="middle" x="799" y="-1073.1" font-family="Courier,monospace" font-size="11.00">ConfiguracaoPadraoRepository</text>
</a>
</g>
<!-- \\Cacic\\CommonBundle\\Entity\\ConfiguracaoPadraoRepository&#45;&gt;\\Doctrine\\ORM\\EntityRepository -->
<g id="edge40" class="edge"><title>\\Cacic\\CommonBundle\\Entity\\ConfiguracaoPadraoRepository&#45;&gt;\\Doctrine\\ORM\\EntityRepository</title>
<path fill="none" stroke="black" d="M695.909,-1079.04C678.373,-1083.64 661.496,-1091.13 648,-1103 474.459,-1255.69 332.414,-2024.14 304.844,-2181.73"/>
<polygon fill="none" stroke="black" points="301.391,-2181.16 303.126,-2191.61 308.287,-2182.36 301.391,-2181.16"/>
</g>
<!-- \\Cacic\\CommonBundle\\Entity\\Uorg -->
<g id="node55" class="node"><title>\\Cacic\\CommonBundle\\Entity\\Uorg</title>
<a xlink:href="Uorg.html" xlink:title="Uorg" target="_parent">
<polygon fill="none" stroke="black" points="826,-1040 772,-1040 772,-1004 826,-1004 826,-1040"/>
<text text-anchor="middle" x="799" y="-1019.1" font-family="Courier,monospace" font-size="11.00">Uorg</text>
</a>
</g>
<!-- \\Cacic\\CommonBundle\\Entity\\LocalRepository -->
<g id="node56" class="node"><title>\\Cacic\\CommonBundle\\Entity\\LocalRepository</title>
<a xlink:href="LocalRepository.html" xlink:title="LocalRepository" target="_parent">
<polygon fill="none" stroke="black" points="858,-986 740,-986 740,-950 858,-950 858,-986"/>
<text text-anchor="middle" x="799" y="-965.1" font-family="Courier,monospace" font-size="11.00">LocalRepository</text>
</a>
</g>
<!-- \\Cacic\\CommonBundle\\Entity\\LocalRepository&#45;&gt;\\Doctrine\\ORM\\EntityRepository -->
<g id="edge42" class="edge"><title>\\Cacic\\CommonBundle\\Entity\\LocalRepository&#45;&gt;\\Doctrine\\ORM\\EntityRepository</title>
<path fill="none" stroke="black" d="M739.884,-964.466C708.996,-965.788 672.609,-972.781 648,-995 460.151,-1164.6 328.271,-2015.13 304.025,-2181.68"/>
<polygon fill="none" stroke="black" points="300.551,-2181.25 302.584,-2191.65 307.479,-2182.25 300.551,-2181.25"/>
</g>
<!-- \\Cacic\\CommonBundle\\Entity\\UnidOrganizacionalNivel1 -->
<g id="node57" class="node"><title>\\Cacic\\CommonBundle\\Entity\\UnidOrganizacionalNivel1</title>
<a xlink:href="UnidOrganizacionalNivel1.html" xlink:title="UnidOrganizacionalNivel1" target="_parent">
<polygon fill="none" stroke="black" points="888,-932 710,-932 710,-896 888,-896 888,-932"/>
<text text-anchor="middle" x="799" y="-911.1" font-family="Courier,monospace" font-size="11.00">UnidOrganizacionalNivel1</text>
</a>
</g>
<!-- \\Cacic\\CommonBundle\\Entity\\AcaoSo -->
<g id="node58" class="node"><title>\\Cacic\\CommonBundle\\Entity\\AcaoSo</title>
<a xlink:href="AcaoSo.html" xlink:title="AcaoSo" target="_parent">
<polygon fill="none" stroke="black" points="827,-878 771,-878 771,-842 827,-842 827,-878"/>
<text text-anchor="middle" x="799" y="-857.1" font-family="Courier,monospace" font-size="11.00">AcaoSo</text>
</a>
</g>
<!-- \\Cacic\\CommonBundle\\Entity\\ClassProperty -->
<g id="node59" class="node"><title>\\Cacic\\CommonBundle\\Entity\\ClassProperty</title>
<a xlink:href="ClassProperty.html" xlink:title="ClassProperty" target="_parent">
<polygon fill="none" stroke="black" points="851,-824 747,-824 747,-788 851,-788 851,-824"/>
<text text-anchor="middle" x="799" y="-803.1" font-family="Courier,monospace" font-size="11.00">ClassProperty</text>
</a>
</g>
<!-- \\Cacic\\CommonBundle\\Entity\\Local -->
<g id="node60" class="node"><title>\\Cacic\\CommonBundle\\Entity\\Local</title>
<a xlink:href="Local.html" xlink:title="Local" target="_parent">
<polygon fill="none" stroke="black" points="826,-770 772,-770 772,-734 826,-734 826,-770"/>
<text text-anchor="middle" x="799" y="-749.1" font-family="Courier,monospace" font-size="11.00">Local</text>
</a>
</g>
<!-- \\Cacic\\CommonBundle\\Entity\\TipoLicencaRepository -->
<g id="node61" class="node"><title>\\Cacic\\CommonBundle\\Entity\\TipoLicencaRepository</title>
<a xlink:href="TipoLicencaRepository.html" xlink:title="TipoLicencaRepository" target="_parent">
<polygon fill="none" stroke="black" points="878,-716 720,-716 720,-680 878,-680 878,-716"/>
<text text-anchor="middle" x="799" y="-695.1" font-family="Courier,monospace" font-size="11.00">TipoLicencaRepository</text>
</a>
</g>
<!-- \\Cacic\\CommonBundle\\Entity\\TipoLicencaRepository&#45;&gt;\\Doctrine\\ORM\\EntityRepository -->
<g id="edge44" class="edge"><title>\\Cacic\\CommonBundle\\Entity\\TipoLicencaRepository&#45;&gt;\\Doctrine\\ORM\\EntityRepository</title>
<path fill="none" stroke="black" d="M719.869,-695.542C694.049,-698.713 667.132,-706.86 648,-725 424.033,-937.347 319.401,-1994.25 302.478,-2181.59"/>
<polygon fill="none" stroke="black" points="298.975,-2181.47 301.571,-2191.74 305.948,-2182.09 298.975,-2181.47"/>
</g>
<!-- \\Cacic\\CommonBundle\\Entity\\CollectDefClass -->
<g id="node62" class="node"><title>\\Cacic\\CommonBundle\\Entity\\CollectDefClass</title>
<a xlink:href="CollectDefClass.html" xlink:title="CollectDefClass" target="_parent">
<polygon fill="none" stroke="black" points="858,-662 740,-662 740,-626 858,-626 858,-662"/>
<text text-anchor="middle" x="799" y="-641.1" font-family="Courier,monospace" font-size="11.00">CollectDefClass</text>
</a>
</g>
<!-- \\Cacic\\CommonBundle\\Entity\\Software -->
<g id="node63" class="node"><title>\\Cacic\\CommonBundle\\Entity\\Software</title>
<a xlink:href="Software.html" xlink:title="Software" target="_parent">
<polygon fill="none" stroke="black" points="834,-608 764,-608 764,-572 834,-572 834,-608"/>
<text text-anchor="middle" x="799" y="-587.1" font-family="Courier,monospace" font-size="11.00">Software</text>
</a>
</g>
<!-- \\Cacic\\CommonBundle\\Entity\\ConfiguracaoLocal -->
<g id="node64" class="node"><title>\\Cacic\\CommonBundle\\Entity\\ConfiguracaoLocal</title>
<a xlink:href="ConfiguracaoLocal.html" xlink:title="ConfiguracaoLocal" target="_parent">
<polygon fill="none" stroke="black" points="864,-554 734,-554 734,-518 864,-518 864,-554"/>
<text text-anchor="middle" x="799" y="-533.1" font-family="Courier,monospace" font-size="11.00">ConfiguracaoLocal</text>
</a>
</g>
<!-- \\Cacic\\CommonBundle\\Entity\\AquisicaoItem -->
<g id="node65" class="node"><title>\\Cacic\\CommonBundle\\Entity\\AquisicaoItem</title>
<a xlink:href="AquisicaoItem.html" xlink:title="AquisicaoItem" target="_parent">
<polygon fill="none" stroke="black" points="851,-500 747,-500 747,-464 851,-464 851,-500"/>
<text text-anchor="middle" x="799" y="-479.1" font-family="Courier,monospace" font-size="11.00">AquisicaoItem</text>
</a>
</g>
<!-- \\Cacic\\CommonBundle\\Entity\\SrcacicTransf -->
<g id="node66" class="node"><title>\\Cacic\\CommonBundle\\Entity\\SrcacicTransf</title>
<a xlink:href="SrcacicTransf.html" xlink:title="SrcacicTransf" target="_parent">
<polygon fill="none" stroke="black" points="851,-446 747,-446 747,-410 851,-410 851,-446"/>
<text text-anchor="middle" x="799" y="-425.1" font-family="Courier,monospace" font-size="11.00">SrcacicTransf</text>
</a>
</g>
<!-- \\Cacic\\CommonBundle\\Entity\\Patrimonio -->
<g id="node67" class="node"><title>\\Cacic\\CommonBundle\\Entity\\Patrimonio</title>
<a xlink:href="Patrimonio.html" xlink:title="Patrimonio" target="_parent">
<polygon fill="none" stroke="black" points="841,-392 757,-392 757,-356 841,-356 841,-392"/>
<text text-anchor="middle" x="799" y="-371.1" font-family="Courier,monospace" font-size="11.00">Patrimonio</text>
</a>
</g>
<!-- \\Cacic\\CommonBundle\\Entity\\AplicativoRepository -->
<g id="node68" class="node"><title>\\Cacic\\CommonBundle\\Entity\\AplicativoRepository</title>
<a xlink:href="AplicativoRepository.html" xlink:title="AplicativoRepository" target="_parent">
<polygon fill="none" stroke="black" points="875,-338 723,-338 723,-302 875,-302 875,-338"/>
<text text-anchor="middle" x="799" y="-317.1" font-family="Courier,monospace" font-size="11.00">AplicativoRepository</text>
</a>
</g>
<!-- \\Cacic\\CommonBundle\\Entity\\AplicativoRepository&#45;&gt;\\Doctrine\\ORM\\EntityRepository -->
<g id="edge46" class="edge"><title>\\Cacic\\CommonBundle\\Entity\\AplicativoRepository&#45;&gt;\\Doctrine\\ORM\\EntityRepository</title>
<path fill="none" stroke="black" d="M722.917,-316.66C695.992,-319.456 667.565,-327.585 648,-347 372.807,-620.074 309.375,-1969.03 301.03,-2181.74"/>
<polygon fill="none" stroke="black" points="297.531,-2181.66 300.644,-2191.79 304.526,-2181.93 297.531,-2181.66"/>
</g>
<!-- \\Cacic\\CommonBundle\\Entity\\GrupoUsuarioRepository -->
<g id="node69" class="node"><title>\\Cacic\\CommonBundle\\Entity\\GrupoUsuarioRepository</title>
<a xlink:href="GrupoUsuarioRepository.html" xlink:title="GrupoUsuarioRepository" target="_parent">
<polygon fill="none" stroke="black" points="881,-284 717,-284 717,-248 881,-248 881,-284"/>
<text text-anchor="middle" x="799" y="-263.1" font-family="Courier,monospace" font-size="11.00">GrupoUsuarioRepository</text>
</a>
</g>
<!-- \\Cacic\\CommonBundle\\Entity\\GrupoUsuarioRepository&#45;&gt;\\Doctrine\\ORM\\EntityRepository -->
<g id="edge48" class="edge"><title>\\Cacic\\CommonBundle\\Entity\\GrupoUsuarioRepository&#45;&gt;\\Doctrine\\ORM\\EntityRepository</title>
<path fill="none" stroke="black" d="M716.205,-263.406C691.326,-266.81 665.913,-275.134 648,-293 365.517,-574.739 308.143,-1965.01 300.875,-2181.61"/>
<polygon fill="none" stroke="black" points="297.369,-2181.72 300.54,-2191.83 304.366,-2181.95 297.369,-2181.72"/>
</g>
<!-- \\Cacic\\CommonBundle\\Entity\\SrcacicConexaoRepository -->
<g id="node70" class="node"><title>\\Cacic\\CommonBundle\\Entity\\SrcacicConexaoRepository</title>
<a xlink:href="SrcacicConexaoRepository.html" xlink:title="SrcacicConexaoRepository" target="_parent">
<polygon fill="none" stroke="black" points="888,-3578 710,-3578 710,-3542 888,-3542 888,-3578"/>
<text text-anchor="middle" x="799" y="-3557.1" font-family="Courier,monospace" font-size="11.00">SrcacicConexaoRepository</text>
</a>
</g>
<!-- \\Cacic\\CommonBundle\\Entity\\SrcacicConexaoRepository&#45;&gt;\\Doctrine\\ORM\\EntityRepository -->
<g id="edge50" class="edge"><title>\\Cacic\\CommonBundle\\Entity\\SrcacicConexaoRepository&#45;&gt;\\Doctrine\\ORM\\EntityRepository</title>
<path fill="none" stroke="black" d="M709.154,-3560.5C686.871,-3556.48 664.636,-3548.35 648,-3533 445.623,-3346.25 324.339,-2412.25 303.292,-2238.01"/>
<polygon fill="none" stroke="black" points="306.767,-2237.6 302.102,-2228.08 299.817,-2238.43 306.767,-2237.6"/>
</g>
<!-- \\Cacic\\CommonBundle\\Entity\\ClassPropertyType -->
<g id="node71" class="node"><title>\\Cacic\\CommonBundle\\Entity\\ClassPropertyType</title>
<a xlink:href="ClassPropertyType.html" xlink:title="ClassPropertyType" target="_parent">
<polygon fill="none" stroke="black" points="864,-176 734,-176 734,-140 864,-140 864,-176"/>
<text text-anchor="middle" x="799" y="-155.1" font-family="Courier,monospace" font-size="11.00">ClassPropertyType</text>
</a>
</g>
<!-- \\Cacic\\CommonBundle\\Entity\\ComputadorColetaHistorico -->
<g id="node72" class="node"><title>\\Cacic\\CommonBundle\\Entity\\ComputadorColetaHistorico</title>
<a xlink:href="ComputadorColetaHistorico.html" xlink:title="ComputadorColetaHistorico" target="_parent">
<polygon fill="none" stroke="black" points="891,-122 707,-122 707,-86 891,-86 891,-122"/>
<text text-anchor="middle" x="799" y="-101.1" font-family="Courier,monospace" font-size="11.00">ComputadorColetaHistorico</text>
</a>
</g>
<!-- \\Cacic\\CommonBundle\\Entity\\SrcacicSessao -->
<g id="node73" class="node"><title>\\Cacic\\CommonBundle\\Entity\\SrcacicSessao</title>
<a xlink:href="SrcacicSessao.html" xlink:title="SrcacicSessao" target="_parent">
<polygon fill="none" stroke="black" points="851,-68 747,-68 747,-32 851,-32 851,-68"/>
<text text-anchor="middle" x="799" y="-47.1" font-family="Courier,monospace" font-size="11.00">SrcacicSessao</text>
</a>
</g>
</g>
</svg>
